<svg id="interphone_-_Copy" data-name="interphone - Copy" xmlns="http://www.w3.org/2000/svg" width="44" height="44" viewBox="0 0 44 44">
  <path id="Path_57" data-name="Path 57" d="M40.453,0H3.547A3.551,3.551,0,0,0,0,3.547V40.453A3.551,3.551,0,0,0,3.547,44H40.453A3.551,3.551,0,0,0,44,40.453V3.547A3.551,3.551,0,0,0,40.453,0Zm0,40.96H3.547a.513.513,0,0,1-.507-.507V3.547a.513.513,0,0,1,.507-.507H40.453a.513.513,0,0,1,.507.507V20.784H38.2v-.721a4.6,4.6,0,0,0-4.592-4.591H30.069a4.6,4.6,0,0,0-4.592,4.591v.721H22a1.216,1.216,0,0,0,0,2.432H40.96V40.454A.514.514,0,0,1,40.453,40.96ZM27.91,20.784v-.721a2.162,2.162,0,0,1,2.16-2.159h3.539a2.162,2.162,0,0,1,2.16,2.159v.721Z" fill="#f1f1f1"/>
  <path id="Path_58" data-name="Path 58" d="M37.965,32.079H33.233a3.551,3.551,0,0,0-3.547,3.547V59.6a3.551,3.551,0,0,0,3.547,3.547h4.733A3.551,3.551,0,0,0,41.512,59.6V35.626A3.551,3.551,0,0,0,37.965,32.079ZM38.472,59.6a.513.513,0,0,1-.507.507H33.233a.513.513,0,0,1-.507-.507V35.626a.513.513,0,0,1,.507-.507h4.733a.513.513,0,0,1,.507.507V59.6Z" transform="translate(-23.67 -25.578)" fill="#f1f1f1"/>
  <path id="Path_59" data-name="Path 59" d="M138.524,36.173a4.705,4.705,0,1,0-4.7-4.705A4.709,4.709,0,0,0,138.524,36.173Zm0-6.978a2.273,2.273,0,1,1-2.272,2.273A2.275,2.275,0,0,1,138.524,29.2Z" transform="translate(-106.7 -21.339)" fill="#f1f1f1"/>
  <path id="Path_60" data-name="Path 60" d="M137.3,128.639h-10.24a1.216,1.216,0,0,0,0,2.432H137.3a1.216,1.216,0,1,0,0-2.432Z" transform="translate(-100.337 -102.569)" fill="#f1f1f1"/>
  <path id="Path_61" data-name="Path 61" d="M102.575,127.145a1.519,1.519,0,1,0,1.074.444A1.529,1.529,0,0,0,102.575,127.145Z" transform="translate(-80.575 -101.377)" fill="#f1f1f1"/>
  <path id="Path_62" data-name="Path 62" d="M137.3,151.753h-10.24a1.216,1.216,0,0,0,0,2.432H137.3a1.216,1.216,0,1,0,0-2.432Z" transform="translate(-100.337 -120.998)" fill="#f1f1f1"/>
  <path id="Path_63" data-name="Path 63" d="M102.575,150.254a1.522,1.522,0,1,0,1.074.446A1.526,1.526,0,0,0,102.575,150.254Z" transform="translate(-80.575 -119.803)" fill="#f1f1f1"/>
  <path id="Path_64" data-name="Path 64" d="M137.3,174.867h-10.24a1.216,1.216,0,0,0,0,2.432H137.3a1.216,1.216,0,1,0,0-2.432Z" transform="translate(-100.337 -139.428)" fill="#f1f1f1"/>
  <path id="Path_65" data-name="Path 65" d="M102.575,173.365a1.522,1.522,0,1,0,1.074.446A1.526,1.526,0,0,0,102.575,173.365Z" transform="translate(-80.575 -138.23)" fill="#f1f1f1"/>
</svg>
