<svg xmlns="http://www.w3.org/2000/svg" width="45.935" height="43.7" viewBox="0 0 45.935 43.7">
  <path id="desktop" d="M41.939,5.6H3.993A4,4,0,0,0,0,9.6V38.016a4,4,0,0,0,3.993,4H16.384v4.3h-4.77a1.5,1.5,0,1,0,0,2.991H34.319a1.5,1.5,0,1,0,0-2.991H29.546v-4.3H41.939a4,4,0,0,0,4-4V9.6A4,4,0,0,0,41.939,5.6ZM2.991,14.682H42.944v18.25H2.991Zm1-6.087H41.939a1,1,0,0,1,1,1v2.094H2.991V9.6A1,1,0,0,1,3.993,8.6ZM26.555,46.313H19.375v-4.3h7.181ZM41.939,39.02H3.993a1,1,0,0,1-1-1V35.923H42.944v2.093A1,1,0,0,1,41.939,39.02Z" transform="translate(0 -5.604)" fill="#f1f1f1"/>
</svg>
