<svg xmlns="http://www.w3.org/2000/svg" xmlns:xlink="http://www.w3.org/1999/xlink" width="53" height="45.7" viewBox="0 0 53 45.7">
  <defs>
    <linearGradient id="linear-gradient" x1="0.5" x2="0.5" y2="1" gradientUnits="objectBoundingBox">
      <stop offset="0" stop-color="#f1f1f1"/>
      <stop offset="1" stop-color="#f1f1f1"/>
    </linearGradient>
  </defs>
  <g id="home_1_-_Copy" data-name="home (1) - Copy" transform="translate(0 -17.319)">
    <path id="Path_55" data-name="Path 55" d="M71.457,135.551a1.581,1.581,0,0,0-1.581,1.581v16.04H37.8v-16.04a1.581,1.581,0,0,0-3.161,0v17.621a1.581,1.581,0,0,0,1.581,1.581H71.457a1.581,1.581,0,0,0,1.581-1.581V137.132A1.581,1.581,0,0,0,71.457,135.551Z" transform="translate(-27.335 -93.315)" fill="url(#linear-gradient)"/>
    <path id="Path_56" data-name="Path 56" d="M52.537,42.7,27.616,17.782a1.581,1.581,0,0,0-2.235,0L.463,42.7A1.581,1.581,0,0,0,2.7,44.935l23.8-23.8,23.8,23.8A1.58,1.58,0,1,0,52.537,42.7Z" transform="translate(0)" fill="url(#linear-gradient)"/>
  </g>
</svg>
